<?xml version="1.0" standalone="no"?>
<!DOCTYPE svg PUBLIC "-//W3C//DTD SVG 20010904//EN"
 "http://www.w3.org/TR/2001/REC-SVG-20010904/DTD/svg10.dtd">
<svg version="1.0" xmlns="http://www.w3.org/2000/svg"
 width="1600.000000pt" height="1600.000000pt" viewBox="0 0 1600.000000 1600.000000"
 preserveAspectRatio="xMidYMid meet">
<metadata>
Created by potrace 1.11, written by Peter Selinger 2001-2013
</metadata>
<g transform="translate(0.000000,1600.000000) scale(0.100000,-0.100000)"
fill="#000000" stroke="none">
<path d="M5055 14994 c-121 -10 -331 -37 -455 -60 -1059 -194 -2013 -827
-2605 -1729 -207 -316 -341 -592 -460 -950 -469 -1411 -113 -2964 925 -4038
400 -415 911 -753 1437 -953 l103 -39 1 -2315 c1 -1273 3 -2335 5 -2360 16
-203 106 -458 219 -621 143 -205 294 -338 525 -460 8 -4 33 -15 55 -25 22 -9
49 -20 60 -25 74 -31 215 -66 313 -76 87 -10 8228 -10 8307 0 64 8 71 9 150
26 210 47 444 172 602 321 244 231 386 515 422 842 8 79 6 8267 -3 8318 -3 19
-9 46 -12 60 -4 14 -8 36 -10 50 -6 48 -65 212 -104 291 -186 376 -532 641
-945 723 -115 22 -146 24 -376 25 l-207 1 -7 66 c-30 278 -223 504 -495 579
-68 18 -212 24 -286 12 -280 -49 -520 -310 -541 -589 l-6 -68 -1228 0 -1228 0
-21 73 c-125 432 -290 789 -525 1142 -394 590 -914 1049 -1545 1365 -419 209
-845 337 -1320 395 -129 16 -622 28 -745 19z"/>
</g>
</svg>
